# File created by Blade
# Date/Time:  Tue Jan 27 18:12:42 2015
# Frame Rate: 120.000 fps
#------------------------------------------------------
:FULLY-SPECIFIED
:DEGREES
1841
root -1.271914 31.794000 -6.610115 6.030716 9.226597 3.524222
Spine -7.552162 -5.176582 -3.573570
Head 10.537745 -39.970979 0.899573
LeftShoulder -12.874014 17.323571 4.093342
LeftArm 27.718774 42.068983 -66.584255
LeftForeArm -1.743045 0.000000 15.783537
LeftHand -10.672653 -0.000000 -5.692750
LeftHandThumb1 -26.253704 0.000000 33.147579
RightShoulder -2.099270 11.569181 -13.922633
RightArm 10.743414 32.362650 72.541049
RightForeArm 35.711695 -0.000000 5.833536
RightHand -22.857853 -0.000000 -3.664847
RightHandThumb1 -24.326973 -0.000000 -32.862282
LeftUpLeg -2.220855 -2.009179 -1.375122
LeftLeg 1.671540 -0.000000 -0.000000
LeftFoot -18.141023 15.581577 -24.249532
LeftToeBase 8.691577 -0.000000 -0.000000
RightUpLeg 1.442373 -5.261878 -4.102068
RightLeg -3.303689 -0.000000 0.000000
RightFoot -16.078126 -14.531930 10.302348
RightToeBase 5.159237 -0.000000 -0.000000
1842
root -1.278852 31.793930 -6.617563 6.047068 9.227149 3.517852
Spine -7.503966 -5.121428 -3.573411
Head 10.409703 -39.923227 0.995463
LeftShoulder -12.863817 17.296457 4.167582
LeftArm 27.677149 42.039001 -66.674139
LeftForeArm -1.691888 -0.000000 15.822884
LeftHand -10.697088 -0.000000 -5.699063
LeftHandThumb1 -26.253704 0.000000 33.147579
RightShoulder -2.138473 11.521542 -13.744295
RightArm 10.571892 32.485038 72.691817
RightForeArm 35.563136 -0.000000 5.842471
RightHand -22.633782 -0.000000 -3.712491
RightHandThumb1 -24.326973 -0.000000 -32.862282
LeftUpLeg -2.266781 -1.993823 -1.358357
LeftLeg 1.697176 -0.000000 -0.000000
LeftFoot -18.126808 15.578662 -24.223160
LeftToeBase 8.631465 -0.000000 -0.000000
RightUpLeg 1.404760 -5.248728 -4.079972
RightLeg -3.294924 -0.000000 0.000000
RightFoot -16.084469 -14.564616 10.283800
RightToeBase 5.175912 -0.000000 -0.000000
1843
root -1.278143 31.793408 -6.616885 6.047968 9.242061 3.519756
Spine -7.475060 -5.090242 -3.549014
Head 10.353562 -39.855170 1.007706
LeftShoulder -12.855703 17.306662 4.206908
LeftArm 27.636093 42.025995 -66.752323
LeftForeArm -1.698012 -0.000000 15.873881
LeftHand -10.590721 -0.000000 -5.124719
LeftHandThumb1 -26.253704 0.000000 33.147579
RightShoulder -2.181849 11.517559 -13.630960
RightArm 10.323774 32.509253 72.787141
RightForeArm 35.463852 -0.000000 5.932711
RightHand -22.461528 -0.000000 -3.491674
RightHandThumb1 -24.326973 -0.000000 -32.862282
LeftUpLeg -2.260630 -2.028229 -1.359811
LeftLeg 1.685178 -0.000000 -0.000000
LeftFoot -18.138852 15.588948 -24.242447
LeftToeBase 8.676733 -0.000000 -0.000000
RightUpLeg 1.424979 -5.294235 -4.083958
RightLeg -3.331539 -0.000000 0.000000
RightFoot -16.061876 -14.516137 10.291827
RightToeBase 5.170232 -0.000000 -0.000000
1844
root -1.282891 31.793821 -6.623125 6.054152 9.230127 3.514522
Spine -7.429559 -5.053342 -3.542830
Head 10.280596 -39.772554 1.084458
LeftShoulder -12.849323 17.304202 4.275041
LeftArm 27.599044 42.006617 -66.829960
LeftForeArm -1.714277 -0.000000 15.928648
LeftHand -10.556130 -0.000000 -5.069070
LeftHandThumb1 -26.253704 0.000000 33.147579
RightShoulder -2.187949 11.571158 -13.470171
RightArm 10.072220 32.575535 72.814385
RightForeArm 35.491999 -0.000000 6.061628
RightHand -22.165451 -0.000000 -3.421934
RightHandThumb1 -24.326973 -0.000000 -32.862282
LeftUpLeg -2.282346 -2.009239 -1.348308
LeftLeg 1.688568 -0.000000 -0.000000
LeftFoot -18.123662 15.586819 -24.247368
LeftToeBase 8.652192 -0.000000 -0.000000
RightUpLeg 1.405502 -5.290726 -4.069178
RightLeg -3.337832 -0.000000 0.000000
RightFoot -16.044386 -14.528575 10.260343
RightToeBase 5.179569 -0.000000 -0.000000
1845
root -1.283961 31.793585 -6.626773 6.058941 9.211158 3.513251
Spine -7.399188 -5.038881 -3.520811
Head 10.234483 -39.678855 1.109434
LeftShoulder -12.866585 17.303195 4.335084
LeftArm 27.553708 42.035698 -66.905281
LeftForeArm -1.732261 -0.000000 15.993895
LeftHand -10.570983 -0.000000 -5.055089
LeftHandThumb1 -26.253704 0.000000 33.147579
RightShoulder -2.203107 11.546950 -13.359415
RightArm 9.985896 32.625867 72.923472
RightForeArm 35.407945 -0.000000 6.169032
RightHand -21.818143 0.000000 -3.195715
RightHandThumb1 -24.326973 -0.000000 -32.862282
LeftUpLeg -2.288588 -2.007486 -1.347988
LeftLeg 1.681045 -0.000000 -0.000000
LeftFoot -18.127521 15.600662 -24.248714
LeftToeBase 8.649130 -0.000000 -0.000000
RightUpLeg 1.392828 -5.309952 -4.066874
RightLeg -3.343854 -0.000000 0.000000
RightFoot -16.029097 -14.502258 10.259111
RightToeBase 5.170998 -0.000000 -0.000000
1846
root -1.284420 31.793873 -6.630227 6.066289 9.190275 3.508391
Spine -7.378232 -5.013749 -3.493460
Head 10.216494 -39.586427 1.122057
LeftShoulder -12.847605 17.291312 4.398079
LeftArm 27.478802 42.045922 -67.011445
LeftForeArm -1.718061 -0.000000 16.028645
LeftHand -10.529720 -0.000000 -5.018876
LeftHandThumb1 -26.253704 0.000000 33.147579
RightShoulder -2.217318 11.540961 -13.261398
RightArm 9.890331 32.605011 72.969479
RightForeArm 35.259701 0.000000 6.283366
RightHand -21.454215 0.000000 -2.799834
RightHandThumb1 -24.326973 -0.000000 -32.862282
LeftUpLeg -2.295464 -1.984646 -1.344902
LeftLeg 1.668023 -0.000000 -0.000000
LeftFoot -18.116000 15.607619 -24.225284
LeftToeBase 8.671107 -0.000000 -0.000000
RightUpLeg 1.386246 -5.308672 -4.062804
RightLeg -3.370691 -0.000000 0.000000
RightFoot -15.997871 -14.478820 10.243985
RightToeBase 5.181078 -0.000000 -0.000000
